<?xml version="1.0" encoding="UTF-8"?><svg id="Ebene_1" xmlns="http://www.w3.org/2000/svg" viewBox="0 0 400 400"><defs><style>.cls-1,.cls-2,.cls-3{stroke-linejoin:round;}.cls-1,.cls-2,.cls-3,.cls-4{fill:none;stroke-width:10px;}.cls-1,.cls-2,.cls-4{stroke-linecap:round;}.cls-1,.cls-4{opacity:.5;stroke:#1ed760;}.cls-2,.cls-3{stroke:#58636b;}.cls-5{fill:#8de9ae;}.cls-4{stroke-miterlimit:10;}.cls-6{fill:#58636b;}.cls-7{fill:#1ed760;}</style></defs><polyline class="cls-1" points="264.93 119.83 303.78 119.83 303.78 243.1 205.78 243.1"/><polyline class="cls-1" points="125.54 144.56 125.54 119.83 169.45 119.83"/><path class="cls-7" d="m202.81,186.15c-2.14,0-4.14-1.15-5.21-3-1.67-2.87-.69-6.56,2.18-8.23.92-.53,1.96-.82,3.02-.82,2.14,0,4.14,1.15,5.21,3,.81,1.39,1.03,3.01.62,4.57-.41,1.55-1.4,2.86-2.79,3.67-.92.53-1.96.82-3.02.82Z"/><path class="cls-7" d="m202.81,206.01c-2.14,0-4.14-1.15-5.21-3-1.67-2.87-.69-6.56,2.18-8.23.92-.53,1.96-.82,3.02-.82,2.14,0,4.14,1.15,5.21,3,.81,1.39,1.03,3.01.62,4.57-.41,1.55-1.4,2.86-2.79,3.67-.92.53-1.96.82-3.02.82Z"/><path class="cls-2" d="m114.53,238.93v24.89h26.88c5.53-.16,10.3,3.83,11.12,9.3.55,5.75-3.67,10.85-9.41,11.4-.37.03-.73.05-1.1.05h-31.71c-9.25.09-16.83-7.34-16.92-16.6v-40.19c.03-6.68,4.05-12.69,10.22-15.26,11.61-4.7,24.04-7.01,36.57-6.79,12.38-.24,24.67,2.05,36.13,6.73,6.11,2.59,10.09,8.57,10.12,15.21v33.05"/><path class="cls-3" d="m161.04,163.84c0,16.6-9.47,27.66-21.14,27.66s-21.15-11.06-21.15-27.66c-.53-11.68,8.51-21.57,20.19-22.1,11.68-.53,21.57,8.51,22.1,20.19.03.64.03,1.28,0,1.91h0Z"/><path class="cls-6" d="m185.48,168.85c-.53,0-1.05-.11-1.54-.31-1.49-.63-2.45-2.08-2.43-3.7l.2-19.42-.15-.03c-9.25-1.95-15.97-10.23-15.97-19.69v-26.84c0-11.1,9.03-20.13,20.13-20.13h62.29c11.1,0,20.13,9.03,20.13,20.13v26.84c0,11.1-9.03,20.13-20.13,20.13h-37.74l-21.98,21.87c-.75.75-1.75,1.16-2.8,1.16Zm.24-82.18c-6.72,0-12.18,5.46-12.18,12.18v26.84c0,6.72,5.46,12.18,12.18,12.18,1.05,0,2.08.43,2.82,1.18.74.75,1.16,1.78,1.15,2.83l-.14,13.33,16.27-16.19c.75-.75,1.75-1.16,2.8-1.16h39.38c6.72,0,12.18-5.46,12.18-12.18v-26.84c0-6.72-5.46-12.18-12.18-12.18h-62.29Z"/><path class="cls-6" d="m248.01,79.76c10.53,0,19.1,8.57,19.1,19.1v26.84c0,10.53-8.57,19.1-19.1,19.1h-38.17l-.18.18-22.1,21.99c-.56.55-1.29.86-2.08.86-.39,0-.78-.08-1.14-.23-1.11-.47-1.81-1.54-1.8-2.74l.2-19.76v-.5s-.48-.1-.48-.1l-.49-.1c-8.78-1.85-15.15-9.71-15.15-18.69v-26.84c0-10.53,8.57-19.1,19.1-19.1h62.29m-59.51,77.97l1.05-1.05,17-16.92c.56-.55,1.29-.86,2.08-.86h39.38c7.29,0,13.21-5.93,13.21-13.21v-26.84c0-7.29-5.93-13.21-13.21-13.21h-62.29c-7.29,0-13.21,5.93-13.21,13.21v26.84c0,7.29,5.93,13.21,13.21,13.21.78,0,1.54.32,2.09.87.55.55.86,1.32.85,2.1l-.15,14.36-.02,1.48m59.51-80.03h-62.29c-11.67,0-21.16,9.49-21.16,21.16v26.84c0,9.71,6.73,18.24,16.11,20.55l-.19,18.58c-.02,2.04,1.18,3.87,3.06,4.66.62.26,1.27.39,1.94.39,1.33,0,2.59-.52,3.53-1.46l21.68-21.57h37.32c11.67,0,21.16-9.49,21.16-21.16v-26.84c0-11.67-9.49-21.16-21.16-21.16h0Zm-57.4,75.02l.11-10.82c.01-1.33-.51-2.63-1.45-3.57-.93-.94-2.23-1.48-3.56-1.48-6.15,0-11.15-5-11.15-11.15v-26.84c0-6.15,5-11.15,11.15-11.15h62.29c6.15,0,11.15,5,11.15,11.15v26.84c0,6.15-5,11.15-11.15,11.15h-39.38c-1.33,0-2.58.52-3.53,1.46l-14.49,14.42h0Z"/><line class="cls-4" x1="191.19" y1="103.02" x2="242.53" y2="103.02"/><path class="cls-5" d="m280.05,175.12h-61.21v10h61.21c2.76,0,5-2.24,5-5s-2.24-5-5-5Z"/><path class="cls-5" d="m260.05,194.99h-41.21v10h41.21c2.76,0,5-2.24,5-5s-2.24-5-5-5Z"/><line class="cls-4" x1="191.19" y1="120.23" x2="220.38" y2="120.23"/></svg>