<?xml version="1.0" encoding="UTF-8"?><svg id="Ebene_1" xmlns="http://www.w3.org/2000/svg" viewBox="0 0 400 400"><defs><style>.cls-1{opacity:.3;}.cls-1,.cls-2,.cls-3{fill:#1ed760;}.cls-2,.cls-4{opacity:.2;}.cls-5,.cls-6{stroke:#58636b;stroke-linejoin:round;}.cls-5,.cls-6,.cls-4,.cls-7{fill:none;stroke-width:10px;}.cls-5,.cls-4,.cls-7{stroke-linecap:round;}.cls-4,.cls-7{stroke:#1ed760;stroke-miterlimit:10;}.cls-7{opacity:.5;}.cls-8{fill:#58636b;}</style></defs><path class="cls-1" d="m151.52,251.54l11.86,29.05,36.62-.25,36.62.25,31.13-76.26h0c3.9-8.99,6.07-18.91,6.07-29.33,0-29.04-16.77-54.15-41.16-66.2-69.33,35.44-80.72,103.78-81.13,142.74Z"/><path class="cls-2" d="m126.19,175c0,10.43,2.17,20.34,6.07,29.33h0s19.27,47.21,19.27,47.21c.41-38.95,11.8-107.3,81.13-142.74-9.85-4.87-20.93-7.61-32.66-7.61-40.76,0-73.81,33.05-73.81,73.81Z"/><path class="cls-3" d="m181.78,137.99c-2.14,0-4.14-1.15-5.21-3-1.67-2.87-.69-6.56,2.18-8.23.92-.53,1.96-.82,3.02-.82,2.14,0,4.14,1.15,5.21,3,.81,1.39,1.03,3.01.62,4.57-.41,1.55-1.4,2.86-2.79,3.67-.92.53-1.96.82-3.02.82Z"/><path class="cls-3" d="m228.36,195.56c-2.14,0-4.14-1.15-5.21-3-1.67-2.87-.69-6.56,2.18-8.23.92-.53,1.96-.82,3.02-.82,2.14,0,4.14,1.15,5.21,3,.81,1.39,1.03,3.01.62,4.57-.41,1.55-1.4,2.86-2.79,3.67-.92.53-1.96.82-3.02.82Z"/><line class="cls-5" x1="170.84" y1="292.31" x2="228.36" y2="292.31"/><line class="cls-5" x1="175.76" y1="308.02" x2="223.44" y2="308.02"/><polyline class="cls-5" points="200 260.37 200 216.41 167.1 183.51"/><line class="cls-5" x1="189.85" y1="201.89" x2="216.26" y2="175.48"/><polyline class="cls-6" points="200 241.27 228.36 225.08 228.36 201.89"/><polyline class="cls-6" points="203.05 187.34 181.78 165.5 181.78 143.91"/><line class="cls-7" x1="200" y1="86.12" x2="200" y2="49.91"/><line class="cls-7" x1="288.78" y1="176.37" x2="324.99" y2="176.37"/><line class="cls-4" x1="271.51" y1="121.61" x2="297.12" y2="96"/><line class="cls-4" x1="133.94" y1="115.68" x2="108.33" y2="90.08"/><line class="cls-7" x1="75.01" y1="176.37" x2="111.22" y2="176.37"/><path class="cls-8" d="m181.72,319.85c2.64,7.56,9.82,12.99,18.28,12.99s15.64-5.43,18.28-12.99h-36.57Z"/></svg>