<?xml version="1.0" encoding="UTF-8"?><svg id="Ebene_1" xmlns="http://www.w3.org/2000/svg" viewBox="0 0 400 400"><defs><style>.cls-1{opacity:.5;}.cls-1,.cls-2,.cls-3{fill:#1ed760;}.cls-4,.cls-5{fill:none;stroke:#58636b;stroke-linejoin:round;stroke-width:9.04px;}.cls-2{opacity:.2;stroke:#1ed760;stroke-miterlimit:10;stroke-width:.52px;}.cls-5{stroke-linecap:round;}</style></defs><path class="cls-2" d="m197.72,90.88c-44.02,0-79.7,35.68-79.7,79.7s35.68,79.7,79.7,79.7,79.7-35.68,79.7-79.7-35.68-79.7-79.7-79.7Zm55.29,66.36l-23.2,22.61c-.95.93-1.38,2.26-1.16,3.57l5.48,31.93c.57,3.3-2.89,5.81-5.85,4.25l-28.68-15.08c-1.18-.62-2.58-.62-3.75,0l-28.68,15.08c-2.96,1.56-6.42-.96-5.85-4.25l5.48-31.93c.22-1.31-.21-2.64-1.16-3.57l-23.2-22.61c-2.39-2.33-1.07-6.4,2.24-6.88l32.06-4.66c1.31-.19,2.45-1.02,3.04-2.21l14.34-29.05c1.48-3,5.76-3,7.24,0l14.34,29.05c.59,1.19,1.72,2.02,3.04,2.21l32.06,4.66c3.31.48,4.63,4.55,2.24,6.88Z"/><path class="cls-1" d="m200.52,138.6l8.19,16.6c.34.68.99,1.15,1.74,1.26l18.32,2.66c1.89.27,2.65,2.6,1.28,3.93l-13.26,12.92c-.54.53-.79,1.29-.66,2.04l3.13,18.25c.32,1.88-1.65,3.32-3.35,2.43l-16.39-8.62c-.67-.35-1.47-.35-2.15,0l-16.39,8.62c-1.69.89-3.67-.55-3.35-2.43l3.13-18.25c.13-.75-.12-1.51-.66-2.04l-13.26-12.92c-1.37-1.33-.61-3.66,1.28-3.93l18.32-2.66c.75-.11,1.4-.58,1.74-1.26l8.19-16.6c.85-1.71,3.29-1.71,4.14,0Z"/><polyline class="cls-5" points="148.62 253.1 148.62 292.66 196.91 268.78"/><polyline class="cls-5" points="246.01 253.1 246.01 292.66 197.72 268.78"/><path class="cls-4" d="m181.38,249.78c-37.04-7.24-64.99-39.87-64.99-79.02,0-44.47,36.05-80.52,80.52-80.52s80.52,36.05,80.52,80.52c0,38.62-27.19,70.89-63.48,78.71"/><path class="cls-3" d="m197.71,245.43c-1.16,0-2.31.31-3.33.9-3.16,1.84-4.24,5.91-2.4,9.07,1.18,2.03,3.38,3.3,5.74,3.3,1.16,0,2.31-.31,3.33-.9,1.53-.89,2.62-2.32,3.08-4.04.45-1.71.21-3.5-.68-5.03-1.18-2.04-3.38-3.3-5.74-3.3Z"/></svg>